<?xml version="1.0" encoding="utf-8"?>
<!-- Generator: Adobe Illustrator 24.1.2, SVG Export Plug-In . SVG Version: 6.00 Build 0)  -->
<svg version="1.1" id="レイヤー_1" xmlns="http://www.w3.org/2000/svg" xmlns:xlink="http://www.w3.org/1999/xlink" x="0px"
	 y="0px" viewBox="0 0 240 34.4" style="enable-background:new 0 0 240 34.4;" xml:space="preserve">
<style type="text/css">
	.st0{fill:#222221;}
</style>
<g>
	<g>
		<g>
			<g>
				<g>
					<path class="st0" d="M3.8,23.3c0-0.5,0.1-0.9,0.3-1.4c0.2-0.5,0.4-0.9,0.5-1.3c0.1-0.3,0.4-0.7,0.7-1.3c0.3-0.6,0.6-1.2,1-2
						s0.8-1.5,1.2-2.3c0.4-0.8,0.8-1.6,1.2-2.3c0.4-0.7,0.7-1.4,1-2c0.3-0.6,0.5-1,0.7-1.3c0,0,0.1-0.1,0.1-0.2s0.1-0.2,0.2-0.4
						c0.1-0.1,0.2-0.2,0.3-0.3c0.1-0.1,0.1-0.2,0.1-0.2s0-0.1,0-0.1c0,0-0.1-0.1-0.1-0.1C10.3,8,9.4,8.2,8.5,8.3S6.6,8.7,5.7,8.9
						C4.8,9.1,4,9.3,3.1,9.6c-0.8,0.3-1.6,0.6-2.3,0.9c-0.2,0-0.4,0-0.6-0.1S0,10.1,0,9.9V9.8c0,0,0,0,0-0.1c0-0.1,0.1-0.3,0.2-0.5
						c0.1-0.2,0.2-0.3,0.2-0.3l2.7-1.2l18.2-4.6c0.2,0.6,0.2,1,0,1.3c-0.2,0.3-0.6,0.6-1.2,0.8s-1.2,0.4-1.9,0.5
						c-0.7,0.1-1.4,0.3-2.1,0.5c-0.7,0.2-1.4,0.5-2,0.8s-1,0.8-1.3,1.4c-1.3,2.6-2.6,5.1-4,7.7c-1.4,2.5-2.6,5.1-3.7,7.8
						c0,0-0.1,0-0.1,0c0,0-0.1,0-0.1,0c-0.3,0-0.5-0.1-0.7-0.2S3.8,23.6,3.8,23.3L3.8,23.3z"/>
					<path class="st0" d="M15.2,22.5c-0.3-0.8-0.5-1.5-0.4-2.2c0-0.7,0.2-1.4,0.5-2.1c0.3-0.6,0.7-1.2,1.1-1.8c0.5-0.5,1-1,1.5-1.4
						c0.5-0.4,1.1-0.7,1.6-0.9s1-0.3,1.4-0.3c0.4,0,0.7,0.2,1,0.5c0.2,0.3,0.3,0.7,0.2,1.3c0,0.8-0.2,1.5-0.7,2s-1,1.1-1.6,1.6
						c-0.6,0.5-1.1,0.9-1.6,1.2s-0.7,0.7-0.7,1c0,0.2,0.1,0.3,0.3,0.4c0.2,0.1,0.5,0.2,0.7,0.2s0.6,0.1,0.8,0.1c0.3,0,0.5,0,0.6,0.1
						c1.9-0.4,3.3-0.6,4.2-0.7c0.9-0.1,1.5-0.1,1.8,0s0.2,0.3-0.1,0.5s-0.8,0.5-1.5,0.7c-0.7,0.2-1.5,0.5-2.4,0.7s-1.8,0.3-2.7,0.3
						c-0.9,0-1.7-0.1-2.4-0.3S15.5,23,15.2,22.5 M20.4,15.7c-0.4,0-0.8,0.1-1.1,0.3c-0.4,0.2-0.7,0.5-1,0.8
						c-0.3,0.3-0.5,0.7-0.7,1.1s-0.3,0.8-0.4,1.1c0,0,0.1,0,0.1,0h0.1c0.3,0,0.6-0.1,1-0.4s0.7-0.5,1-0.9s0.6-0.7,0.8-1.1
						S20.4,16,20.4,15.7L20.4,15.7z"/>
					<path class="st0" d="M25.1,21.1c0-0.6,0.1-1.2,0.3-1.7c0.2-0.6,0.5-1.1,0.8-1.7s0.6-1.1,0.9-1.7c0.3-0.6,0.5-1.1,0.7-1.6
						c-0.4,0.2-0.7,0.3-1,0.4c-0.3,0-0.6,0-1,0c0,0-0.2,0-0.4,0s-0.3,0-0.4,0c0.1-0.4,0.3-0.8,0.7-1.2c0.3-0.3,0.7-0.6,1.1-0.9
						c0.4-0.2,0.8-0.5,1.3-0.6c0.4-0.2,0.9-0.3,1.2-0.4c0.6-0.9,1.1-1.9,1.5-2.8S31.6,6.9,32,6c0.4-0.9,0.8-1.8,1.4-2.6
						c0.5-0.8,1.2-1.6,2.1-2.3l0.1,1.1L31.9,11c0.2-0.1,0.5-0.1,0.8-0.2s0.6-0.1,1-0.2c0.3-0.1,0.6-0.1,1-0.2c0.3,0,0.6-0.1,0.8-0.2
						c0,0,0.1,0,0.2,0c0.1,0,0.2,0,0.2,0c0.3,0,0.5,0,0.7,0.1s0.3,0.3,0.4,0.7c-1.4,0.4-2.6,0.8-3.7,1.3c-1.1,0.4-2,1-2.8,1.7
						c-0.8,0.7-1.5,1.6-2,2.7c-0.5,1.1-0.9,2.5-1.1,4.2c0,0.4,0,0.7,0.1,1c0,0.3,0.3,0.5,0.7,0.5c0.5,0,0.9-0.1,1.3-0.3
						c0.4-0.2,0.8-0.4,1.2-0.6c0.4-0.2,0.8-0.4,1.1-0.6c0.4-0.2,0.8-0.3,1.3-0.3c0,0.5-0.2,0.9-0.6,1.3c-0.4,0.4-0.9,0.7-1.5,1
						c-0.6,0.3-1.2,0.5-1.8,0.7C28.5,24,28,24,27.6,24c-0.4,0-0.8-0.1-1.1-0.2c-0.3-0.2-0.6-0.4-0.8-0.6c-0.2-0.3-0.4-0.6-0.5-0.9
						C25.2,21.9,25.1,21.5,25.1,21.1L25.1,21.1z"/>
					<path class="st0" d="M33.2,20.7c0-0.4,0.1-0.7,0.2-1c0.1-0.3,0.4-0.4,0.9-0.4c0,0,0.1,0,0.3,0s0.3,0,0.3,0
						c0,0.9,0.1,1.6,0.4,2.1s0.9,0.7,1.8,0.7c0.7,0,1.4-0.1,2.1-0.3c0.7-0.2,1.3-0.5,1.9-1s1-0.9,1.4-1.6c0.3-0.6,0.5-1.3,0.5-2.1
						c0-0.5-0.2-0.8-0.5-1c-0.3-0.2-0.7-0.4-1.1-0.5s-0.8-0.3-1.1-0.4c-0.3-0.1-0.5-0.4-0.5-0.8c0-0.5,0.3-0.9,0.8-1.3
						s1.2-0.8,2-1.1c0.8-0.3,1.5-0.6,2.3-0.8c0.7-0.2,1.3-0.3,1.7-0.3c0,0.6-0.1,1-0.4,1.2s-0.6,0.4-0.9,0.6
						c-0.4,0.1-0.7,0.3-1.1,0.4s-0.7,0.4-0.9,0.7c0.3,0.3,0.6,0.5,0.8,0.7s0.4,0.4,0.5,0.7s0.2,0.5,0.2,0.8s0.1,0.6,0.1,1
						c0,1-0.2,2-0.7,2.8s-1,1.6-1.7,2.2s-1.5,1.1-2.4,1.4c-0.9,0.3-1.8,0.5-2.8,0.5c-0.5,0-1-0.1-1.5-0.2c-0.5-0.1-0.9-0.3-1.3-0.6
						c-0.4-0.3-0.7-0.6-0.9-1C33.3,21.8,33.2,21.3,33.2,20.7L33.2,20.7z"/>
					<path class="st0" d="M47.6,22.5c0-0.3,0.1-0.7,0.3-1.3c0.2-0.5,0.4-1.1,0.7-1.8c0.3-0.6,0.6-1.3,1-1.9c0.4-0.7,0.7-1.3,1.1-1.8
						c0.4-0.5,0.7-1,1.1-1.3s0.6-0.5,0.9-0.5c0.6,0,0.8,0.3,0.8,0.8c0,0.2,0,0.4-0.1,0.6c-0.1,0.2-0.2,0.3-0.3,0.4
						c-0.1,0.1-0.2,0.3-0.4,0.4c-0.1,0.1-0.3,0.3-0.4,0.5c-0.2,0.3-0.4,0.7-0.7,1.2c-0.3,0.5-0.5,1-0.8,1.5
						c-0.2,0.5-0.5,0.9-0.6,1.3c-0.2,0.4-0.3,0.6-0.3,0.6v0.4c0.8-0.1,1.5-0.5,2.2-1s1.4-1.1,2-1.9c0.6-0.7,1.3-1.5,1.8-2.3
						c0.6-0.8,1.1-1.5,1.7-2.2c0.5-0.7,1-1.2,1.5-1.7c0.5-0.4,0.9-0.7,1.3-0.7c0,0.7-0.1,1.4-0.4,2s-0.6,1.2-1,1.8s-0.7,1.2-1,1.8
						c-0.3,0.6-0.4,1.3-0.4,2c0,0.3,0.2,0.6,0.6,0.9c0.4,0.2,0.8,0.5,1.3,0.6c0.5,0.2,1,0.3,1.5,0.4c0.5,0.1,0.8,0.2,1,0.2v0.8
						c-0.5,0-1,0-1.7,0c-0.7,0-1.4-0.1-2-0.2s-1.3-0.4-1.8-0.7s-0.9-0.8-1.1-1.4c-0.5,0.3-1,0.7-1.5,1.2c-0.5,0.5-1,0.9-1.5,1.3
						s-1,0.7-1.6,1S49.7,24,49.1,24c-0.4,0-0.7-0.2-1-0.5C47.8,23.2,47.6,22.9,47.6,22.5L47.6,22.5z"/>
					<path class="st0" d="M54.8,33.5c1.1,0,2.1-0.3,3-1c0.9-0.6,1.7-1.4,2.5-2.4s1.4-1.9,1.9-3s1-2,1.3-2.9c0.1-0.4,0.3-0.9,0.5-1.5
						c0.2-0.6,0.4-1.2,0.6-1.8c0.2-0.6,0.4-1.1,0.5-1.6s0.2-0.8,0.2-0.8v-0.1c-0.3-0.3-0.7-0.4-1-0.3c-0.3,0.1-0.7,0.2-1,0.3
						c-0.3,0.1-0.6,0.2-0.9,0.2c-0.3,0-0.5-0.1-0.7-0.5c0-0.3,0.1-0.6,0.3-0.8c0.2-0.2,0.4-0.4,0.7-0.5s0.6-0.2,0.9-0.3
						s0.7-0.1,1-0.2c0.3-0.1,0.6-0.2,0.9-0.3c0.3-0.1,0.4-0.3,0.6-0.6l3.1-7c0.3-0.6,0.6-1.1,1.1-1.6c0.5-0.5,1-0.9,1.6-1.2
						s1.2-0.6,1.8-0.8c0.6-0.2,1.3-0.3,1.8-0.3c0.9,0,1.4,0.2,1.8,0.7c0.3,0.5,0.5,1.1,0.5,2.1c0,0.2-0.1,0.4-0.2,0.7
						c-0.1,0.3-0.3,0.5-0.5,0.8C77,9,76.8,9.2,76.5,9.4c-0.2,0.2-0.5,0.3-0.7,0.3c0-0.3,0-0.5,0.1-0.7s0.2-0.5,0.3-0.7
						s0.2-0.4,0.3-0.7c0.1-0.2,0.1-0.5,0.1-0.8c0-0.3,0-0.6-0.1-0.8s-0.3-0.3-0.7-0.3c-0.6,0-1.2,0.1-1.7,0.4S73,6.8,72.5,7.3
						c-0.5,0.5-1.1,1-1.6,1.7c-0.5,0.6-0.9,1.3-1.3,1.9s-0.6,1.3-0.8,2c-0.2,0.6-0.3,1.2-0.3,1.7c0,0,0,0.1,0,0.2c0,0.1,0,0.2,0,0.2
						c0.4-0.1,0.8-0.3,1.3-0.4s1-0.3,1.5-0.4s1.1-0.2,1.6-0.3c0.5-0.1,1-0.1,1.5-0.1c0,0.3-0.2,0.6-0.5,0.9s-0.7,0.5-1.2,0.7
						s-1,0.4-1.6,0.6s-1.1,0.4-1.7,0.6c-0.5,0.2-1,0.4-1.4,0.6c-0.4,0.2-0.6,0.4-0.7,0.6c-0.1,0.6-0.3,1.4-0.6,2.5s-0.8,2.2-1.3,3.4
						c-0.5,1.2-1.1,2.5-1.8,3.8c-0.7,1.3-1.4,2.4-2.2,3.5c-0.8,1-1.6,1.9-2.5,2.5c-0.9,0.7-1.8,1-2.7,1c-0.1,0-0.3,0-0.5,0
						c-0.2,0-0.4-0.1-0.5-0.1c-0.2-0.1-0.3-0.1-0.4-0.3S54.8,33.7,54.8,33.5L54.8,33.5z"/>
					<path class="st0" d="M76,22.5c0-0.3,0.1-0.7,0.3-1.3c0.2-0.5,0.4-1.1,0.7-1.8c0.3-0.6,0.6-1.3,1-1.9c0.4-0.7,0.7-1.3,1.1-1.8
						c0.4-0.5,0.7-1,1.1-1.3s0.6-0.5,0.9-0.5c0.6,0,0.8,0.3,0.8,0.8c0,0.2,0,0.4-0.1,0.6c-0.1,0.2-0.2,0.3-0.3,0.4
						c-0.1,0.1-0.2,0.3-0.4,0.4c-0.1,0.1-0.3,0.3-0.4,0.5c-0.2,0.3-0.4,0.7-0.7,1.2c-0.3,0.5-0.5,1-0.8,1.5
						c-0.2,0.5-0.5,0.9-0.6,1.3c-0.2,0.4-0.3,0.6-0.3,0.6v0.4c0.8-0.1,1.5-0.5,2.2-1s1.4-1.1,2-1.9c0.6-0.7,1.3-1.5,1.8-2.3
						c0.6-0.8,1.1-1.5,1.7-2.2c0.5-0.7,1-1.2,1.5-1.7c0.5-0.4,0.9-0.7,1.3-0.7c0,0.7-0.1,1.4-0.4,2s-0.6,1.2-1,1.8s-0.7,1.2-1,1.8
						c-0.3,0.6-0.4,1.3-0.4,2c0,0.3,0.2,0.6,0.6,0.9c0.4,0.2,0.8,0.5,1.3,0.6c0.5,0.2,1,0.3,1.5,0.4c0.5,0.1,0.8,0.2,1,0.2v0.8
						c-0.5,0-1,0-1.7,0c-0.7,0-1.4-0.1-2-0.2s-1.3-0.4-1.8-0.7s-0.9-0.8-1.1-1.4c-0.5,0.3-1,0.7-1.5,1.2c-0.5,0.5-1,0.9-1.5,1.3
						s-1,0.7-1.6,1S78.1,24,77.4,24c-0.4,0-0.7-0.2-1-0.5C76.1,23.2,76,22.9,76,22.5L76,22.5z"/>
					<path class="st0" d="M104.7,24c-0.4,0-0.7-0.1-1-0.2c-0.3-0.1-0.6-0.3-0.8-0.6c-0.2-0.3-0.3-0.6-0.4-0.9
						c-0.1-0.3-0.1-0.7,0-1.1c0-0.6,0.1-1.2,0.3-1.8s0.5-1.1,0.8-1.6c0.3-0.5,0.5-1,0.8-1.5c0.2-0.5,0.3-1,0.3-1.6
						c-0.4,0-0.9,0.1-1.4,0.4c-0.5,0.3-1,0.6-1.5,1.1c-0.5,0.5-1,1-1.5,1.5S99.4,19,99,19.6c-0.4,0.6-0.8,1.1-1.1,1.6
						c-0.3,0.5-0.5,0.9-0.7,1.3c0,0-0.1,0-0.3,0c-0.2,0-0.3,0-0.3,0c-0.3,0.2-0.5,0.2-0.6,0c-0.1-0.2-0.1-0.4,0-0.8s0.2-0.8,0.3-1.2
						c0.2-0.4,0.3-0.9,0.5-1.3c0.1-0.4,0.3-0.7,0.3-1s0.1-0.4,0-0.4c0.1-0.1,0.1-0.2,0.2-0.4s0.2-0.4,0.2-0.6
						c0.1-0.2,0.1-0.4,0.2-0.6s0.1-0.3,0.1-0.4c0-0.2-0.1-0.3-0.2-0.3c-0.1,0-0.3-0.1-0.4-0.1c-0.4-0.2-0.7-0.1-1.1,0.3
						s-0.8,1-1.3,1.8s-1,1.7-1.5,2.7c-0.5,1-1.1,2-1.8,2.9c-0.5,0-0.8-0.1-1-0.2c-0.2-0.1-0.4-0.4-0.4-0.9c0.2-0.2,0.4-0.6,0.7-1.2
						c0.3-0.6,0.7-1.3,1.1-2s0.8-1.5,1.3-2.2c0.4-0.8,0.9-1.4,1.3-1.9c0.4-0.5,0.8-0.9,1.1-1.1c0.3-0.2,0.6-0.1,0.8,0.3
						c0.3-0.2,0.7-0.4,1.1-0.6s0.8-0.2,1.2-0.2c0.3,0,0.5,0.1,0.7,0.3c0.2,0.2,0.3,0.4,0.4,0.6c0.1,0.2,0.2,0.5,0.3,0.8
						c0.1,0.3,0.1,0.5,0.1,0.7c0.2-0.1,0.6-0.4,1.1-0.7c0.5-0.3,1.1-0.7,1.6-1.1s1.2-0.7,1.7-0.9s1-0.4,1.4-0.4
						c0.3,0,0.6,0.1,0.8,0.3s0.3,0.5,0.3,0.9c-0.7,1.8-1.3,3.2-1.7,4.2s-0.7,1.9-0.8,2.5c-0.1,0.6-0.1,1,0,1.3s0.4,0.4,0.7,0.6
						c0.5,0,1.1-0.1,1.6-0.3s1-0.4,1.5-0.6c0.5-0.2,1-0.4,1.5-0.6c0.5-0.2,1-0.3,1.6-0.3c0,0.2-0.1,0.4-0.2,0.6
						c-0.1,0.2-0.3,0.3-0.5,0.4c-0.2,0.1-0.4,0.3-0.9,0.5s-0.9,0.4-1.3,0.7s-0.9,0.5-1.4,0.7s-0.7,0.4-0.9,0.4
						c-0.4,0.2-0.7,0.3-0.9,0.3C105.3,24,105,24,104.7,24L104.7,24z"/>
					<path class="st0" d="M110.5,22.1c0-0.3,0-0.5,0.1-0.7c0.1-0.2,0.2-0.5,0.3-0.8c0.1-0.2,0.4-0.6,0.8-1.1
						c0.4-0.6,0.8-1.1,1.2-1.8s0.8-1.2,1.2-1.7s0.6-0.9,0.8-1.1c0.2-0.3,0.3-0.4,0.4-0.4c0.1,0,0.3,0,0.6,0c0.2,0,0.4,0,0.6,0
						s0.3,0.2,0.4,0.4c-0.3,0.7-0.7,1.3-1.1,1.9c-0.5,0.6-0.9,1.2-1.4,1.8s-0.8,1.2-1.2,1.8c-0.3,0.6-0.5,1.3-0.5,2
						c0.1,0,0.2,0,0.4,0c0.2,0,0.4,0,0.6,0.1c0.2,0,0.4,0,0.6,0.1s0.3,0,0.4,0c0.1,0,0.3-0.1,0.6-0.1s0.6-0.1,0.9-0.2
						s0.6-0.2,0.9-0.2c0.3-0.1,0.5-0.1,0.6-0.2c0,0,0,0.1,0,0.2c0,0.1,0,0.2,0,0.2c0,0.4-0.2,0.7-0.6,1c-0.4,0.3-0.8,0.5-1.3,0.6
						c-0.5,0.1-1,0.2-1.5,0.3c-0.5,0-0.9,0.1-1.2,0.1c-0.3,0-0.6,0-0.9-0.1c-0.3-0.1-0.6-0.2-0.8-0.3s-0.4-0.4-0.6-0.6
						S110.5,22.4,110.5,22.1 M119.2,4.6c0.3,0,0.5,0,0.7,0s0.4,0.1,0.6,0.1s0.3,0.2,0.4,0.4s0.1,0.4,0.1,0.7c0,0.1,0,0.2,0,0.4
						s0,0.3,0,0.4c0,0.1-0.1,0.2-0.2,0.3C120.7,7,120.6,7,120.4,7c-0.3,0-0.5-0.1-0.7-0.3c-0.2-0.2-0.3-0.4-0.4-0.7
						s-0.1-0.5-0.1-0.8S119.2,4.7,119.2,4.6L119.2,4.6z"/>
				</g>
				<g>
					<path class="st0" d="M148,22.7c0-0.5,0-1,0.1-1.5c0.1-0.5,0.1-1,0.2-1.5s0.2-1,0.2-1.5c0.1-0.5,0.1-1,0.1-1.5
						c-0.7,0-1.2,0-1.7,0.1c-0.5,0.1-0.9,0.1-1.4,0.2s-0.9,0.1-1.5,0.1c-0.5,0-1.1,0-1.9,0c-0.5,0.6-1.1,1.2-1.8,1.9
						c-0.7,0.7-1.4,1.3-2.2,1.9s-1.6,1.1-2.4,1.4c-0.9,0.4-1.7,0.6-2.6,0.6c-0.6,0-1.2-0.1-1.7-0.3c-0.5-0.2-1-0.5-1.4-0.8
						s-0.7-0.8-1-1.3c-0.2-0.5-0.4-1.1-0.4-1.7c0-0.3,0.1-0.6,0.2-0.7c0.1-0.2,0.3-0.3,0.7-0.3c0.2,0,0.3,0.2,0.5,0.5
						c0.1,0.3,0.3,0.7,0.6,1.1s0.5,0.8,0.9,1.1c0.4,0.3,0.8,0.5,1.5,0.5c0.8,0,1.5-0.1,2.2-0.4s1.4-0.7,2.1-1.1
						c0.7-0.4,1.3-0.9,1.9-1.5c0.6-0.6,1.1-1.1,1.6-1.6c-0.1-0.5-0.2-0.9-0.5-1.1c-0.3-0.2-0.6-0.5-0.9-0.7c-0.3-0.2-0.6-0.6-0.9-1
						c-0.3-0.4-0.4-1-0.4-1.9c0-1.2,0.4-2.2,1.1-2.8c0.7-0.7,1.7-1,3-1c0.4,0,0.8,0,1.1,0.1s0.7,0.2,1.1,0.3s0.8,0.2,1.1,0.3
						c0.4,0.1,0.7,0.1,1.1,0.1c0.2,0,0.4,0,0.6-0.1c0.1-0.1,0.3-0.1,0.4-0.3c0.1-0.1,0.2-0.3,0.4-0.5c0.1-0.2,0.3-0.4,0.5-0.7
						c0.1-0.2,0.3-0.4,0.6-0.8s0.5-0.7,0.8-1.2c0.3-0.4,0.6-0.9,1-1.4s0.7-0.9,1-1.4c0.3-0.4,0.6-0.8,0.8-1.2
						c0.2-0.3,0.4-0.6,0.5-0.8c0.2-0.2,0.4-0.3,0.6-0.3c0.2,0,0.4-0.1,0.6-0.1c0.2,0,0.4,0.1,0.5,0.3c0.1,0.2,0.2,0.4,0.2,0.6
						c0,0.2,0,0.5,0,0.7c0,0.2,0,0.4,0,0.6c0,0.1,0,0.2,0,0.3c0,0.1,0,0.3,0,0.4s0,0.3,0,0.4s0,0.2,0,0.3c-0.1,0.2-0.2,0.5-0.3,0.9
						s-0.3,0.9-0.4,1.4c-0.2,0.5-0.3,1-0.5,1.6s-0.3,1.1-0.5,1.6c-0.1,0.5-0.3,1-0.4,1.4c-0.1,0.4-0.2,0.7-0.2,0.9
						c0,0.1,0,0.3-0.1,0.5c0,0.2-0.1,0.5-0.1,0.7c0,0.2-0.1,0.5-0.1,0.7c0,0.2-0.1,0.4-0.1,0.4c0.2,0,0.4,0.1,0.5,0.2
						s0.3,0.2,0.3,0.4c0,0.2-0.1,0.4-0.2,0.5c-0.1,0.1-0.3,0.2-0.5,0.3c-0.2,0.1-0.4,0.2-0.6,0.4s-0.3,0.3-0.3,0.6
						c0,0.2-0.1,0.7-0.2,1.3c-0.1,0.6-0.2,1.3-0.3,2c-0.1,0.7-0.2,1.4-0.4,2s-0.2,1-0.3,1.3c0,0.1-0.1,0.2-0.1,0.3
						c-0.1,0.2-0.1,0.3-0.2,0.5s-0.2,0.3-0.2,0.4s-0.1,0.2-0.2,0.3c-0.5-0.1-0.9-0.2-1.2-0.4S148,23.2,148,22.7 M139.1,11.2
						c0,0.3,0.1,0.6,0.3,1c0.2,0.4,0.4,0.7,0.7,1c0.3,0.3,0.6,0.6,1,0.8s0.7,0.3,1,0.3c0.3,0,0.6-0.2,1-0.5c0.4-0.3,0.7-0.7,1.1-1.2
						c0.3-0.4,0.6-0.9,0.9-1.3c0.2-0.4,0.4-0.7,0.4-0.9c0-0.3-0.1-0.6-0.3-0.8c-0.2-0.2-0.5-0.3-0.8-0.4c-0.3-0.1-0.6-0.1-1-0.1
						s-0.6,0-0.8,0c-0.3,0-0.6,0-1,0.1c-0.4,0-0.8,0.1-1.1,0.3s-0.6,0.3-0.9,0.6C139.2,10.5,139.1,10.8,139.1,11.2 M148,9.7
						c0.4,0.5,0.8,1.1,1.2,1.7c0.4,0.6,0.7,1.2,1.1,1.8l2.7-9.5L148,9.7z M147.4,11.2c-0.2,0-0.6,0.2-1,0.5
						c-0.4,0.3-0.9,0.7-1.3,1.2c-0.4,0.4-0.8,0.9-1.1,1.3c-0.3,0.4-0.5,0.8-0.5,1c0.1,0,0.4,0,0.7,0s0.7,0,1.1,0c0.4,0,0.8,0,1.1,0
						s0.6,0,0.7,0c0.1,0,0.2,0,0.4-0.1s0.3-0.1,0.5-0.1s0.3-0.1,0.4-0.1c0.1,0,0.2-0.1,0.2-0.1c0,0,0-0.1,0-0.2s0-0.2,0-0.3
						c0-0.2,0-0.4-0.1-0.7c0-0.3-0.1-0.7-0.2-1s-0.2-0.6-0.4-0.9S147.7,11.2,147.4,11.2"/>
					<path class="st0" d="M161.4,21.7c0-0.6,0.1-1.1,0.4-1.7c0.2-0.5,0.5-1,0.8-1.4s0.6-0.9,0.8-1.4c0.2-0.5,0.4-0.9,0.4-1.5
						c0-0.1,0-0.3,0-0.4s0-0.3-0.1-0.5c0-0.2-0.1-0.3-0.2-0.4c-0.1-0.1-0.2-0.2-0.3-0.2c0,0-0.1,0-0.1,0c0,0-0.1,0-0.1,0
						c-0.3,0.4-0.6,0.8-1,1.3c-0.4,0.5-0.8,0.9-1.2,1.4c-0.4,0.5-0.9,0.9-1.3,1.3s-0.8,0.8-1.1,1c-0.2,0.2-0.6,0.5-1,0.9
						c-0.4,0.4-0.8,0.8-1.2,1.1c-0.4,0.4-0.8,0.7-1.1,1c-0.3,0.3-0.5,0.4-0.5,0.4l-1.4-1.2c0.2,0,0.4,0,0.5-0.1s0.3-0.2,0.5-0.3
						c1.2-0.8,2.3-1.7,3.2-2.7s1.9-2.1,2.8-3.3c0-0.1,0.1-0.2,0.3-0.5c0.2-0.3,0.4-0.6,0.6-1c0.2-0.4,0.4-0.7,0.6-1.1
						s0.3-0.7,0.4-0.9c0.1-0.3,0.2-0.5,0.2-0.6c0-0.2,0.1-0.3,0.1-0.4c0-0.1,0.1-0.2,0.2-0.2s0.2-0.1,0.5-0.1c0,0,0.1,0,0.3,0
						c0.1,0,0.2,0,0.3,0.1c0.3,0.5,0.5,1,0.7,1.4s0.4,0.8,0.5,1.2c0.1,0.4,0.2,0.7,0.3,1.1c0.1,0.4,0.1,0.8,0.1,1.3
						c-0.3,0.7-0.5,1.3-0.9,2c-0.3,0.7-0.6,1.3-0.8,2c-0.2,0.6-0.4,1.2-0.4,1.7c0,0.5,0.1,0.9,0.3,1.2s0.7,0.4,1.4,0.5
						c0.6,0,1.6-0.1,2.8-0.5c0.3,0.2,0.3,0.4,0.1,0.6s-0.7,0.4-1.2,0.6c-0.5,0.2-1.1,0.4-1.7,0.5s-1.1,0.2-1.6,0.1
						c-0.4,0-0.7-0.1-0.9-0.2s-0.4-0.3-0.6-0.5c-0.1-0.2-0.3-0.5-0.3-0.7S161.4,22,161.4,21.7L161.4,21.7z"/>
					<path class="st0" d="M166.6,22.1c0.2-1.1,0.5-2.2,1-3.1s1.1-1.8,1.7-2.5c0.6-0.7,1.3-1.3,2.1-1.7c0.8-0.5,1.5-0.8,2.2-0.9
						c0.7-0.1,1.4-0.1,2,0.1s1.1,0.6,1.5,1.2c0,0.5-0.1,0.9-0.3,1.3c-0.2,0.4-0.4,0.8-0.7,1.3c-0.2,0.4-0.5,0.8-0.7,1.3
						s-0.3,0.9-0.3,1.4c0,0.5,0.1,0.9,0.3,1.2c0.2,0.3,0.6,0.5,1.2,0.5c0.5,0,0.9-0.1,1.4-0.2c0.4-0.1,0.9-0.2,1.4-0.2
						c0.1,0,0.2,0,0.4,0s0.3,0,0.4,0c-0.2,0.3-0.5,0.6-0.9,0.9c-0.4,0.2-0.8,0.4-1.2,0.6s-0.9,0.3-1.3,0.4s-0.9,0.1-1.2,0.1
						c-0.4,0-0.7-0.1-1-0.2c-0.3-0.2-0.5-0.4-0.7-0.6s-0.4-0.6-0.5-0.9c-0.1-0.3-0.2-0.7-0.2-1c-0.3,0.3-0.6,0.7-1,1.1
						s-0.7,0.7-1.1,1c-0.4,0.3-0.8,0.5-1.3,0.7c-0.4,0.2-0.9,0.3-1.4,0.3c-0.5,0-1-0.2-1.3-0.6C166.8,23.1,166.6,22.6,166.6,22.1
						 M168.6,21.2c0,0.2,0,0.3,0,0.5s0.1,0.3,0.4,0.4c0.5-0.1,1.1-0.4,1.7-0.8s1.2-0.9,1.8-1.4c0.6-0.5,1-1.1,1.4-1.8
						c0.4-0.6,0.6-1.2,0.6-1.8c0,0,0-0.1,0-0.2c0-0.1,0-0.2,0-0.2c-0.7,0-1.4,0.1-2.1,0.4c-0.7,0.3-1.3,0.7-1.9,1.1s-1,1-1.4,1.7
						S168.6,20.5,168.6,21.2L168.6,21.2z"/>
					<path class="st0" d="M183.4,19.8c-0.2,0.3-0.4,0.7-0.6,1.1s-0.3,0.8-0.5,1.1s-0.4,0.7-0.7,0.9s-0.6,0.4-1.1,0.4
						c-0.4,0-0.6-0.1-0.8-0.2s-0.2-0.4-0.2-0.8c0-0.5,0.1-1,0.4-1.6c0.3-0.6,0.6-1.1,1-1.7c0.4-0.5,0.8-1.1,1.2-1.5
						c0.4-0.5,0.7-0.9,1-1.2l5.5-11.9c0.1-0.3,0.4-0.7,0.8-1S190,3,190.4,3v1l-3.2,7.3V12c0.3,0,0.7-0.1,1-0.2
						c0.3-0.1,0.6-0.2,0.9-0.4c0.3-0.1,0.6-0.3,0.9-0.4c0.3-0.1,0.7-0.2,1.1-0.2c0.4,0.2,0.5,0.5,0.6,0.9s-0.1,0.7-0.3,1.1
						c-0.2,0.4-0.5,0.8-0.8,1.2s-0.7,0.8-1.1,1.2c-0.4,0.4-0.7,0.7-1.1,1s-0.6,0.5-0.8,0.7c-0.3,0.2-0.6,0.4-0.8,0.5
						s-0.5,0.2-0.6,0.3c-0.2,0.1-0.3,0.2-0.4,0.4s-0.1,0.4-0.1,0.8c0,0.6,0.1,1,0.4,1.4c0.3,0.3,0.7,0.6,1.2,0.8
						c0.5,0.2,1,0.3,1.6,0.4c0.6,0.1,1.2,0.1,1.8,0.1s1.2,0,1.8-0.1s1-0.1,1.4-0.2l0.4,0.4c-0.2,0.3-0.6,0.6-1,0.9s-0.9,0.5-1.5,0.7
						s-1,0.4-1.6,0.5c-0.5,0.1-0.9,0.2-1.3,0.2c-0.6,0-1.3-0.1-1.8-0.3c-0.6-0.2-1.1-0.5-1.6-0.9c-0.5-0.4-0.9-0.8-1.3-1.4
						S183.6,20.4,183.4,19.8 M189.3,13.1c-0.2,0-0.4,0.1-0.8,0.2c-0.4,0.1-0.7,0.3-1.1,0.5s-0.7,0.5-0.9,0.7
						c-0.3,0.3-0.4,0.5-0.4,0.8v0.2c0.1-0.1,0.4-0.2,0.7-0.3c0.3-0.1,0.7-0.3,1.1-0.5s0.7-0.5,1-0.7S189.3,13.4,189.3,13.1
						L189.3,13.1z"/>
					<path class="st0" d="M193.8,22.1c0.2-1.1,0.5-2.2,1-3.1s1.1-1.8,1.7-2.5c0.6-0.7,1.3-1.3,2.1-1.7c0.8-0.5,1.5-0.8,2.2-0.9
						c0.7-0.1,1.4-0.1,2,0.1s1.1,0.6,1.5,1.2c0,0.5-0.1,0.9-0.3,1.3c-0.2,0.4-0.4,0.8-0.7,1.3c-0.2,0.4-0.5,0.8-0.7,1.3
						s-0.3,0.9-0.3,1.4c0,0.5,0.1,0.9,0.3,1.2c0.2,0.3,0.6,0.5,1.2,0.5c0.5,0,0.9-0.1,1.4-0.2c0.4-0.1,0.9-0.2,1.4-0.2
						c0.1,0,0.2,0,0.4,0s0.3,0,0.4,0c-0.2,0.3-0.5,0.6-0.9,0.9c-0.4,0.2-0.8,0.4-1.2,0.6s-0.9,0.3-1.3,0.4s-0.9,0.1-1.2,0.1
						c-0.4,0-0.7-0.1-1-0.2c-0.3-0.2-0.5-0.4-0.7-0.6s-0.4-0.6-0.5-0.9c-0.1-0.3-0.2-0.7-0.2-1c-0.3,0.3-0.6,0.7-1,1.1
						s-0.7,0.7-1.1,1c-0.4,0.3-0.8,0.5-1.3,0.7c-0.4,0.2-0.9,0.3-1.4,0.3c-0.5,0-1-0.2-1.3-0.6C194,23.1,193.8,22.6,193.8,22.1
						 M195.8,21.2c0,0.2,0,0.3,0,0.5s0.1,0.3,0.4,0.4c0.5-0.1,1.1-0.4,1.7-0.8s1.2-0.9,1.8-1.4c0.6-0.5,1-1.1,1.4-1.8
						c0.4-0.6,0.6-1.2,0.6-1.8c0,0,0-0.1,0-0.2c0-0.1,0-0.2,0-0.2c-0.7,0-1.4,0.1-2.1,0.4c-0.7,0.3-1.3,0.7-1.9,1.1s-1,1-1.4,1.7
						S195.8,20.5,195.8,21.2L195.8,21.2z"/>
					<path class="st0" d="M206.5,22.1c0.1-0.8,0.3-1.6,0.7-2.3s0.8-1.3,1.3-2s1-1.2,1.6-1.8s1-1.1,1.5-1.7c0.3,0,0.6,0.1,0.7,0.2
						s0.2,0.3,0.2,0.6c-0.2,0.2-0.4,0.5-0.7,1s-0.7,1-1,1.5s-0.7,1-0.9,1.5s-0.4,0.8-0.5,1c-0.2,0.6-0.2,1,0,1.1s0.4,0.1,0.8,0
						c0.4-0.1,0.9-0.4,1.4-0.8c0.5-0.4,1.1-0.8,1.7-1.3c0.6-0.5,1.1-1,1.7-1.5c0.5-0.5,1-1,1.4-1.4h1.3c0,0.3,0,0.7-0.1,1
						s-0.2,0.6-0.3,0.9c-0.1,0.3-0.2,0.6-0.3,0.9c-0.1,0.3-0.1,0.6-0.1,0.9c0,0.5,0.1,0.7,0.4,0.8c0.3,0.1,0.6,0.1,1,0.1
						c0.5,0,1.1-0.1,1.6-0.3c0.6-0.2,1.1-0.5,1.6-0.9c0.5-0.4,0.9-0.8,1.2-1.3c0.3-0.5,0.5-1,0.5-1.6c0-0.5-0.1-1-0.2-1.4
						c-0.1-0.4-0.2-0.9-0.2-1.4c0-0.6,0.3-0.9,1-0.9c0.3,0,0.6,0.1,0.8,0.4c0.2,0.3,0.4,0.6,0.6,0.9s0.3,0.7,0.3,1.1
						s0.1,0.7,0.1,0.9c0,1-0.2,1.9-0.7,2.7c-0.5,0.8-1.1,1.5-1.9,2s-1.6,0.9-2.6,1.2s-1.9,0.4-2.8,0.4c-0.8,0-1.4-0.3-1.8-0.8
						s-0.7-1.2-0.7-1.9c-0.6,0.2-1.1,0.5-1.6,0.9c-0.5,0.4-1,0.9-1.4,1.3c-0.5,0.4-1,0.8-1.5,1.2c-0.5,0.3-1.1,0.5-1.7,0.5
						c-0.2,0-0.4-0.1-0.6-0.2c-0.2-0.1-0.4-0.3-0.7-0.5c-0.2-0.2-0.4-0.4-0.5-0.6C206.6,22.5,206.5,22.3,206.5,22.1L206.5,22.1z"/>
					<path class="st0" d="M226.4,22.1c0.2-1.1,0.5-2.2,1-3.1s1.1-1.8,1.7-2.5c0.6-0.7,1.3-1.3,2.1-1.7c0.8-0.5,1.5-0.8,2.2-0.9
						s1.4-0.1,2,0.1c0.6,0.2,1.1,0.6,1.5,1.2c0,0.5-0.1,0.9-0.3,1.3s-0.4,0.8-0.7,1.3c-0.2,0.4-0.5,0.8-0.7,1.3s-0.3,0.9-0.3,1.4
						c0,0.5,0.1,0.9,0.3,1.2s0.6,0.5,1.2,0.5c0.5,0,0.9-0.1,1.4-0.2c0.4-0.1,0.9-0.2,1.4-0.2c0.1,0,0.2,0,0.4,0s0.3,0,0.4,0
						c-0.2,0.3-0.5,0.6-0.9,0.9c-0.4,0.2-0.8,0.4-1.2,0.6c-0.4,0.2-0.9,0.3-1.3,0.4s-0.9,0.1-1.2,0.1c-0.4,0-0.7-0.1-1-0.2
						c-0.3-0.2-0.5-0.4-0.7-0.6s-0.4-0.6-0.5-0.9c-0.1-0.3-0.2-0.7-0.2-1c-0.3,0.3-0.6,0.7-1,1.1s-0.7,0.7-1.1,1s-0.8,0.5-1.3,0.7
						c-0.4,0.2-0.9,0.3-1.4,0.3c-0.5,0-1-0.2-1.3-0.6C226.6,23.1,226.4,22.6,226.4,22.1 M228.4,21.2c0,0.2,0,0.3,0,0.5
						s0.1,0.3,0.4,0.4c0.5-0.1,1.1-0.4,1.7-0.8s1.2-0.9,1.8-1.4c0.6-0.5,1-1.1,1.4-1.8c0.4-0.6,0.6-1.2,0.6-1.8c0,0,0-0.1,0-0.2
						c0-0.1,0-0.2,0-0.2c-0.7,0-1.4,0.1-2.1,0.4c-0.7,0.3-1.3,0.7-1.9,1.1s-1,1-1.4,1.7S228.4,20.5,228.4,21.2L228.4,21.2z"/>
				</g>
			</g>
		</g>
	</g>
</g>
</svg>
